<?xml version="1.0" encoding="UTF-8" standalone="no"?>
<svg
   xmlns:dc="http://purl.org/dc/elements/1.1/"
   xmlns:cc="http://creativecommons.org/ns#"
   xmlns:rdf="http://www.w3.org/1999/02/22-rdf-syntax-ns#"
   xmlns:svg="http://www.w3.org/2000/svg"
   xmlns="http://www.w3.org/2000/svg"
   xmlns:xlink="http://www.w3.org/1999/xlink"
   xmlns:sodipodi="http://sodipodi.sourceforge.net/DTD/sodipodi-0.dtd"
   xmlns:inkscape="http://www.inkscape.org/namespaces/inkscape"
   sodipodi:docname="totscosh-logo.svg"
   inkscape:version="1.0 (4035a4f, 2020-05-01)"
   id="svg8"
   version="1.1"
   viewBox="0 0 140 140"
   height="140mm"
   width="140mm"
   inkscape:export-filename="/Users/alistair/Google Drive/Climate forum — society &amp; culture/totscosh/totscosh-logo.png"
   inkscape:export-xdpi="72.57"
   inkscape:export-ydpi="72.57">
  <defs
     id="defs2" />
  <sodipodi:namedview
     inkscape:snap-global="false"
     inkscape:snap-nodes="false"
     inkscape:window-maximized="0"
     inkscape:window-y="25"
     inkscape:window-x="0"
     inkscape:window-height="689"
     inkscape:window-width="1252"
     showgrid="false"
     inkscape:document-rotation="0"
     inkscape:current-layer="layer1"
     inkscape:document-units="mm"
     inkscape:cy="196.23196"
     inkscape:cx="414.40093"
     inkscape:zoom="0.55329607"
     inkscape:pageshadow="2"
     inkscape:pageopacity="0.0"
     borderopacity="1.0"
     bordercolor="#666666"
     pagecolor="#ffffff"
     id="base"
     fit-margin-top="0"
     fit-margin-left="0"
     fit-margin-right="0"
     fit-margin-bottom="0" />
  <metadata
     id="metadata5">
    <rdf:RDF>
      <cc:Work
         rdf:about="">
        <dc:format>image/svg+xml</dc:format>
        <dc:type
           rdf:resource="http://purl.org/dc/dcmitype/StillImage" />
        <dc:title />
      </cc:Work>
    </rdf:RDF>
  </metadata>
  <g
     id="layer1"
     inkscape:groupmode="layer"
     inkscape:label="Layer 1"
     transform="translate(-35.29306,-79.463888)">
    <text
       inkscape:export-ydpi="300.0415"
       inkscape:export-xdpi="300.0415"
       id="text2143"
       style="font-size:19.05px;line-height:1.25;font-family:Copperplate;-inkscape-font-specification:Copperplate;fill:#000000;stroke:none;stroke-width:0;stroke-miterlimit:4;stroke-dasharray:none"
       xml:space="preserve"
       transform="translate(-0.20581306,0.66340351)"><textPath
         style="font-size:19.05px;fill:#000000;stroke:none"
         id="textPath2145"
         xlink:href="#path1899">Top of the South Community Shares •</textPath></text>
    <ellipse
       inkscape:export-ydpi="300.0415"
       inkscape:export-xdpi="300.0415"
       ry="59.561787"
       rx="59.274052"
       cy="148.5"
       cx="105"
       id="path1899"
       style="mix-blend-mode:normal;fill:#000000;fill-opacity:0;stroke:none;stroke-width:0;stroke-linecap:round;stroke-miterlimit:4;stroke-dasharray:none;stroke-opacity:0.469636;paint-order:markers fill stroke" />
    <path
       inkscape:tile-h="20.054948"
       inkscape:tile-w="56.017553"
       inkscape:tile-cy="145.32624"
       inkscape:tile-cx="105.65643"
       inkscape:transform-center-y="41.657293"
       inkscape:transform-center-x="-10.331008"
       inkscape:tile-y0="176.95606"
       inkscape:tile-x0="87.978664"
       id="use1871"
       d="m 89.767248,191.1113 c -0.914427,-1.46196 -1.656668,-2.85185 -2.02885,-3.79916 l -0.416162,-1.05923 1.621548,-1.15004 c 3.435399,-2.43649 7.090263,-4.17217 10.049751,-4.77263 3.601915,-0.73078 7.925315,0.53667 12.985915,3.80699 1.0798,0.69779 1.63624,1.19445 2.83247,2.52812 1.83044,2.04075 2.23352,2.24932 4.61209,2.38651 1.8323,0.10569 5.81736,0.84265 6.03574,1.11621 0.0715,0.0895 0.89311,0.56856 1.82588,1.06454 1.39715,0.7429 1.81184,1.04618 2.3538,1.7214 0.58531,0.7284 0.61211,0.87486 0.5275,1.37488 -0.18712,1.10585 0.0322,1.02461 -1.95044,0.86531 -0.61605,-0.0495 -3.99912,-0.61083 -7.55453,-1.02414 -4.7527,-0.5525 -5.8156,0.17008 -6.89122,0.6185 -3.27692,1.36614 -5.0031,-3.34962 -5.87467,-3.00311 -0.66331,0.26371 -0.21505,2.03556 3.28051,3.98343 1.60248,0.89296 3.31715,-1.02028 6.39387,-0.70743 1.04537,0.1063 3.18407,0.17719 4.79901,0.30471 1.61493,0.12753 3.82555,0.43395 4.91247,0.68093 1.08692,0.24698 3.46302,0.12727 3.46302,0.12727 0.34683,-0.76796 0.61213,-1.41074 0.53041,-2.14211 -0.0559,-0.50039 -0.3602,-1.34261 -0.84877,-1.84981 -0.59413,-0.61682 -0.79667,-0.24631 -0.71977,-0.46347 0.0869,-0.24531 0.69579,-0.7176 1.20847,-1.12528 1.01298,-0.80481 2.04452,-1.20101 3.205,-1.22927 1.02773,-0.025 2.80582,-0.89026 4.28106,-2.08321 1.51003,-1.22105 2.63001,-1.60203 4.0337,-1.37207 l 0.90474,0.14822 -0.0579,0.51031 c -0.05,0.44116 -0.20936,0.63022 -1.17586,1.39539 l -1.11811,0.8849 0.85528,-0.1582 c 0.84143,-0.15564 1.07275,0.0563 1.38691,1.04463 -0.26875,0.23006 -6.94077,5.29307 -10.02911,7.38985 -1.74719,1.18624 -1.95966,1.28966 -2.66515,1.29732 -2.47055,0.0268 -10.44747,0.92256 -11.31561,1.27068 -1.7225,0.69072 -3.06304,0.65533 -4.10144,-0.10828 -0.31406,-0.23094 -2.40164,-1.08251 -4.63908,-1.89238 -2.23743,-0.80986 -4.41398,-1.69802 -4.83677,-1.97369 -1.90699,-1.24338 -4.85019,-1.83596 -6.89866,-1.38899 -1.11317,0.24289 -1.300055,0.34108 -2.553372,1.34159 L 94.83863,196.75 93.785067,195.72989 c -1.190182,-1.15242 -3.537783,-3.85104 -4.017953,-4.61872 z"
       style="mix-blend-mode:normal;fill:#000000;stroke:none;stroke-width:0.170132"
       sodipodi:nodetypes="cscssssssscssssssssscssscsssccccscsssssssscscc" />
    <use
       height="100%"
       width="100%"
       inkscape:transform-center-y="148.53264"
       inkscape:transform-center-x="-88.032512"
       id="use2120"
       xlink:href="#use1871"
       inkscape:tiled-clone-of="#use1871"
       y="0"
       x="0"
       style="fill:#000000;stroke:none" />
    <use
       height="100%"
       width="100%"
       inkscape:transform-center-y="135.39911"
       inkscape:transform-center-x="-47.590453"
       id="use2122"
       transform="rotate(60,105,148.5)"
       xlink:href="#use1871"
       inkscape:tiled-clone-of="#use1871"
       y="0"
       x="0"
       style="fill:#000000;stroke:none" />
    <use
       height="100%"
       width="100%"
       inkscape:transform-center-y="96.826368"
       inkscape:transform-center-x="-37.795952"
       id="use2124"
       transform="rotate(120,105,148.5)"
       xlink:href="#use1871"
       inkscape:tiled-clone-of="#use1871"
       y="0"
       x="0"
       style="fill:#000000;stroke:none" />
    <use
       height="100%"
       width="100%"
       inkscape:transform-center-y="65.218038"
       inkscape:transform-center-x="-67.370486"
       id="use2126"
       transform="rotate(180,105.00001,148.5)"
       xlink:href="#use1871"
       inkscape:tiled-clone-of="#use1871"
       y="0"
       x="0"
       style="fill:#000000;stroke:none" />
    <use
       height="100%"
       width="100%"
       inkscape:transform-center-y="78.351565"
       inkscape:transform-center-x="-107.81254"
       id="use2128"
       transform="rotate(-120,105,148.5)"
       xlink:href="#use1871"
       inkscape:tiled-clone-of="#use1871"
       y="0"
       x="0"
       style="fill:#000000;stroke:none" />
    <use
       height="100%"
       width="100%"
       inkscape:transform-center-y="116.92431"
       inkscape:transform-center-x="-117.60705"
       id="use2130"
       transform="rotate(-60,105,148.5)"
       xlink:href="#use1871"
       inkscape:tiled-clone-of="#use1871"
       y="0"
       x="0"
       style="fill:#000000;stroke:none" />
  </g>
</svg>
